<?xml version="1.0" encoding="utf-8"?>
<!-- Generator: Adobe Illustrator 24.0.0, SVG Export Plug-In . SVG Version: 6.00 Build 0)  -->
<svg version="1.1" id="Layer_1" xmlns="http://www.w3.org/2000/svg" xmlns:xlink="http://www.w3.org/1999/xlink" x="0px" y="0px"
	 viewBox="0 0 512 512" style="enable-background:new 0 0 512 512;" xml:space="preserve">
<style type="text/css">
	.st0{fill:#231F20;}
</style>
<g id="XMLID_1229_">
	<path id="XMLID_1238_" class="st0" d="M139.43,161.04c27.66-34.35,70.06-56.34,117.6-56.34c50.3,0,94.85,24.62,122.27,62.45
		c14.24,4.44,26.81,9.59,37.28,15.31c-27.74-60.39-88.74-102.33-159.55-102.33c-66.65,0-124.62,37.16-154.33,91.88
		C113.72,167.85,126.05,164.16,139.43,161.04z"/>
	<g id="XMLID_1227_">
		<g id="XMLID_1246_">
			<g>
				<g id="XMLID_23_">
					<g id="XMLID_24_">
						<path id="XMLID_25_" class="st0" d="M260.21,286.54c-3.36,0.15-6.7,0.26-10.01,0.33l-3.92,13.55
							c4.79-0.07,9.64-0.2,14.52-0.42c3.25-0.14,6.47-0.32,9.68-0.53c58.2-7.18,105.64-24.13,128.04-44.88
							C367.54,271.65,317.31,284.03,260.21,286.54z"/>
					</g>
				</g>
			</g>
		</g>
		<g id="XMLID_1231_">
			<path id="XMLID_1239_" class="st0" d="M229.2,164.97l-0.09,0.32c1.82-0.06,3.65-0.11,5.48-0.16
				C232.8,165.07,231.01,165.01,229.2,164.97z"/>
		</g>
		<path id="XMLID_1228_" class="st0" d="M248.08,157.45c-83.44,0-155.12,18.53-186.36,45.01c35.05-17.33,91.14-28.56,154.35-28.56
			c106.21,0,192.31,31.69,192.31,70.79c0,21.77-26.71,41.25-68.73,54.23c66.14-12.32,111.49-37.57,111.49-66.73
			C451.15,190.91,360.23,157.45,248.08,157.45z"/>
	</g>
	<g id="XMLID_1230_">
		<path id="XMLID_1233_" class="st0" d="M161.15,372.16c-33.61-27.68-55.04-69.61-55.04-116.55c0-23.23,5.25-45.23,14.63-64.88
			c-10.55,2.22-20.47,4.8-29.65,7.69c-6.18,17.93-9.56,37.17-9.56,57.2c0,58.34,28.47,110.02,72.28,141.93L161.15,372.16z"/>
		<path id="XMLID_1244_" class="st0" d="M404.58,287.34C390,355.45,329.49,406.53,257.03,406.53c-13.42,0-26.42-1.76-38.8-5.05
			l-2.46,8.53l-20.83,9.77c19.31,7.31,40.23,11.32,62.1,11.32c91.52,0,166.67-70.07,174.75-159.49
			C424.5,277.28,415.33,282.56,404.58,287.34z"/>
	</g>
	<path id="XMLID_1236_" class="st0" d="M152.29,431.1l56.91-26.69l63.54-219.86c-15.37-1.74-31.57-2.79-48.32-3.05L152.29,431.1z"/>
</g>
</svg>
