<?xml version="1.0" encoding="utf-8"?>
<!-- Generator: Adobe Illustrator 24.0.0, SVG Export Plug-In . SVG Version: 6.00 Build 0)  -->
<svg version="1.1" id="Calque_1" xmlns="http://www.w3.org/2000/svg" xmlns:xlink="http://www.w3.org/1999/xlink" x="0px" y="0px"
	 viewBox="0 0 400 400" style="enable-background:new 0 0 400 400;" xml:space="preserve">
<style type="text/css">
	.st0{clip-path:url(#SVGID_2_);}
	.st1{fill:#FFFFFF;}
</style>
<path d="M392.8,200c0,106.3-86.1,192.4-192.4,192.4S8,306.3,8,200S94.2,7.6,200.4,7.6S392.8,93.7,392.8,200z"/>
<g>
	<g>
		<defs>
			<path id="SVGID_1_" d="M388.4,195.7c0,102-82.7,184.7-184.7,184.7S19,297.8,19,195.7C19,93.7,101.7,11,203.7,11
				S388.4,93.7,388.4,195.7z"/>
		</defs>
		<clipPath id="SVGID_2_">
			<use xlink:href="#SVGID_1_"  style="overflow:visible;"/>
		</clipPath>
		<g class="st0">
			<g>
				<rect x="173.8" y="254.5" class="st1" width="59.6" height="31.3"/>
				<path class="st1" d="M190.4,278.5c9.6-0.3,18.9-3.1,26.3-7.4c6-3.5,10.8-7.6,14.4-12.4c0.7-0.9,1.5-2,2.2-3.2v-1.1h-59.6V278
					C179.3,278.5,184.9,278.7,190.4,278.5z"/>
			</g>
			<path class="st1" d="M203.6,78.5L203.6,78.5C203.6,78.5,203.6,78.5,203.6,78.5C203.6,78.5,203.6,78.5,203.6,78.5L203.6,78.5
				c-38.1,1.1-67.2,16.7-67.1,70.7c0.1,32,3,41.4,12.3,77.9c6.4,25.3,40.8,38.6,53.8,39.5c0.3,0,0.6,0,0.9-0.1
				c0.3,0,0.6,0.1,0.9,0.1c13.1-0.9,47.4-14.2,53.8-39.4c9.3-36.5,12.2-45.9,12.3-77.9C270.7,95.2,241.7,79.6,203.6,78.5z"/>
			<path class="st1" d="M172.6,255.5c11.4,7.2,23.2,10.6,30,11c0.3,0,0.6,0,0.9-0.1c0.3,0,0.6,0.1,0.9,0.1
				c6.9-0.5,19.5-4.3,30.9-11.5C235.3,255,209,267.6,172.6,255.5z"/>
			<path class="st1" d="M263.3,171.4l-4.2,31.9C275.5,210.4,278,173,278,173C274.3,163.6,263.3,171.4,263.3,171.4z"/>
			<path class="st1" d="M127.1,172.9c0,0,2.6,37.5,18.9,30.3l-4.2-31.9C141.8,171.4,130.9,163.6,127.1,172.9z"/>
			<path class="st1" d="M233.9,285.9l80.5,21c0,0,27.5,4.2,34.5,28.9l12,44.7H204.4H203H46.5l12-44.7c7-24.7,34.5-28.9,34.5-28.9
				l80.3-21L233.9,285.9L233.9,285.9z"/>
			<path class="st1" d="M46.5,380.5l12-44.7c7-24.7,34.5-28.9,34.5-28.9l80.3-21h60.6l80.5,21c0,0,27.5,4.2,34.5,28.9l12,44.7"/>
			<g>
				<polygon class="st1" points="208.9,285.9 203.8,285.9 203.6,285.9 198.5,285.9 183.8,309.1 196.9,324 203.6,324 203.8,324 
					210.4,324 223.6,309.1 				"/>
				<path class="st1" d="M211,321.1c-8.6-9.1-12.3-22.8-10-35.3h-2.5l-14.7,23.2l13.2,14.8h13.5l1.6-1.8
					C211.7,321.8,211.3,321.5,211,321.1z"/>
			</g>
			<g>
				<polygon class="st1" points="233.5,271.2 203.4,286.9 223.2,316.7 259.1,295 				"/>
				<polygon class="st1" points="233.5,271.2 203.4,286.9 223.6,312.7 257.2,293.3 				"/>
			</g>
			<g>
				<polygon class="st1" points="173.6,270.2 203.4,285.9 183.9,315.7 147.9,294 				"/>
				<polygon class="st1" points="173.6,270.2 203.6,285.9 183.5,311.7 149.9,292.3 				"/>
			</g>
			<path class="st1" d="M150.3,291.9L93,306.8c0,0-27.5,4.2-34.5,28.9l-12,44.7h314.4l-12-44.7c-7-24.7-34.5-28.9-34.5-28.9
				l-60-17.2l-50.9,88.6L150.3,291.9z"/>
			<polygon class="st1" points="196.7,324 189.5,355.6 203.4,378.2 216.4,355.6 210.2,324 			"/>
			<polygon class="st1" points="150.3,291.9 123.1,299 138.4,304.9 129,315.7 183.8,380.5 205,380.5 			"/>
			<polygon class="st1" points="254.4,289.6 284.2,298.2 268.9,304.9 278.4,315.7 223.6,380.5 202.3,380.5 			"/>
			<path class="st1" d="M263.4,207.4l-5,3.2l5-50.3l-8.2-17.4c0,0,7.5-38.7-48.1-39.8c0,0-46.8-2.6-52.9,18.6c0,0-25.4-41.6,43-51.6
				c0,0,68.4-5.6,75.8,36c0,0,5.4,45.7-3.6,65.4L263.4,207.4z"/>
			<path class="st1" d="M133.7,129.3c0,0,0.7,16.9,3.8,42.3l5.9,35.8l4.9,3.2l-4.9-50.3l8.5-20.1l1.7-16.3l0.6-2.2V94.2
				C134.4,96.8,133.7,129.3,133.7,129.3z"/>
			<path class="st1" d="M157.4,97.4c1.2,1.8,3.8,4.2,4.6,5.6c0.3-2.6-1.1-4.7-0.9-7.2c3.7,1.9,8.5,2.4,12.3,3.8
				c-0.1-2.1-0.5-4.7-1.2-6.7c6.3-0.5,10.4,5,16.2,5.1c0.2-3.3-1.4-5.8-1.6-8.7c6.2-0.2,11.7,5.4,17.8,4.8c-0.2-2-1-4.9-1.5-7.1
				c5.7-0.3,14.7,6.9,19,10.3c0.1-2.8-0.1-5.6,0.4-8.3c8,3.1,14.5,9.2,21.7,13.6c0.2-2.5-0.7-4.7-0.6-7.2
				c8.4,4.1,13.1,14.5,19.1,21.4c0-2-1.6-3.5-1.5-5.4c1.5,2,3,4.3,4.5,6.4c-3.4-4.6-6-11-8.2-16.4c0.9,1.9,1.7,3.8,2.7,5.7
				c-3.4-5-9.3-9.8-10.9-15.8c-0.5,1.4,0.4,3,1.4,4.1c-2.8-3.7-8.8-9.2-13-10.8c0.2,2.1,2.5,3.5,2.9,5.6c-3.2-1.8-6.7-6.1-10.3-6.7
				c0.2,0.6,0,1.6,0.3,2.2c-4.1,0.7-9.2-3.2-12.6-5.1c-0.1,1.4,0.6,2.6,0.9,3.8c-3.1-0.8-6.2-3.4-9.4-3.8c-0.4,1-0.4,2.2,0,3.2
				c-4.5,0.2-8.9-1.6-13.3-1.2c0.2,0.5,0,1.7,0.2,2.1c-2.3-1.1-7.7-2.8-10.2-1.8c-2.2,0.8-1.7,0.9-1.5,3.5
				c-3.7,0.2-7.6-0.1-11.3,0.1c-0.1,1.1-0.5,2.1-0.4,3.2c-2.7,0.3-5.4-0.4-8-0.2c0,0.6-0.5,1.2-0.4,1.8c-2.7,0.1-7.2-0.9-6.5,3.3
				c-0.4-0.1-0.8-0.1-1.2-0.3c-0.3,1.4,0,2.5,1.3,2.9"/>
			<path class="st1" d="M148.6,98.7c0.5,4.6,3.2,8.1,2.9,13c-0.2,4-1.5,10.9-4.8,13.4c0,10.5,0.6,27.3-6.6,35.9
				c-1.2-3.2-1.5-7.7-3.5-10.5c1.1,0.6,2.3,1.3,3.5,1.5c-0.6-4.6-3.6-10.7-2.8-15.5c1.6,1.5,3.1,3,4.8,4.4c0.3-3-2.4-5.5-3.1-8.4
				c-0.8-3-2.4-9.8-2-12.9c2.2,1.2,3.9,3.6,5.7,5.2c-0.5-3.1-0.3-6.7-0.2-10c1.3,0.3,2.4,1.2,3.8,1.6c0.4-2.3-1.4-4.3-1.9-6.5
				c-0.4-1.7-0.4-3.6-0.3-5.4c1.4,0.8,2.8,1.9,4.1,2.8c-0.9-1.8-2.4-6.5-0.6-8.1"/>
		</g>
	</g>
</g>
</svg>
